<svg width="101" height="100" viewBox="0 0 101 100" fill="none" xmlns="http://www.w3.org/2000/svg">
<path d="M93 88H76V48.47L70 43.79V88H53V52.31L47 60.7101V88H30V62.62L23 54.98V88H6V58.68L0 66.45V94.5101C0 97.5401 2.46 100 5.49 100H94.5C97.53 100 99.99 97.5401 99.99 94.5101V34.67L92.99 44.95V88H93Z" fill="url(#paint0_radial_7007_183)"/>
<path d="M94.51 0H5.49C2.46 0 0 2.46001 0 5.49001V56.63L14.93 37.3L37.81 62.26L62.1 28.36L84.5 46.77L100 24V5.49001C100 2.46001 97.54 0 94.51 0Z" fill="url(#paint1_radial_7007_183)"/>
<path d="M47 88V60.71L38.78 72.2L30 62.6199V88H47Z" fill="#D3302F"/>
<path d="M23 88V54.98L15.32 46.61L6 58.68V88H23Z" fill="#D3302F"/>
<path d="M70 88.0001V43.7801L63 38.3201L53 52.3101V88.0001H70Z" fill="#D3302F"/>
<path d="M93 88V44.95L85.54 55.91L76 48.47V88H93Z" fill="#D3302F"/>
<path d="M62.11 28.36L37.81 62.26L14.93 37.3L0 56.63V66.45L6 58.68L15.32 46.61L23 54.98L30 62.62L38.78 72.2L47 60.71L53 52.31L63 38.32L70 43.78L76 48.47L85.54 55.91L93 44.95L100 34.67V24L84.5 46.77L62.11 28.36Z" fill="white"/>
<path d="M18.4987 13.4199V18.2806C18.3181 18.5196 18.0354 18.7819 17.6507 19.0674C17.2719 19.3472 16.7677 19.5891 16.1383 19.7931C15.5088 19.997 14.7249 20.099 13.7866 20.099C12.9881 20.099 12.2567 19.965 11.5923 19.6969C10.9279 19.423 10.3538 19.0237 9.87003 18.4992C9.39211 17.9746 9.02202 17.3365 8.75975 16.5846C8.49748 15.8269 8.36634 14.9644 8.36634 13.9969V13.1139C8.36634 12.1522 8.48582 11.2955 8.72478 10.5436C8.96956 9.78597 9.31926 9.14487 9.77386 8.62033C10.2285 8.09579 10.7763 7.69947 11.4174 7.43137C12.0644 7.15744 12.7958 7.02048 13.6118 7.02048C14.655 7.02048 15.5176 7.19532 16.1995 7.54502C16.8872 7.88888 17.4176 8.3668 17.7906 8.97876C18.1636 9.59073 18.3997 10.2901 18.4987 11.0769H16.3481C16.2782 10.634 16.1412 10.2377 15.9372 9.88797C15.7391 9.53827 15.4535 9.26435 15.0805 9.06619C14.7133 8.8622 14.2354 8.7602 13.6467 8.7602C13.1397 8.7602 12.6938 8.85637 12.3091 9.0487C11.9245 9.24103 11.6039 9.5237 11.3475 9.89671C11.0969 10.2697 10.9075 10.7243 10.7792 11.2605C10.651 11.7967 10.5869 12.4087 10.5869 13.0964V13.9969C10.5869 14.6963 10.6598 15.317 10.8055 15.859C10.957 16.401 11.1726 16.8585 11.4524 17.2315C11.738 17.6046 12.0848 17.8872 12.4927 18.0796C12.9007 18.2661 13.3611 18.3593 13.874 18.3593C14.3753 18.3593 14.7861 18.3185 15.1067 18.2369C15.4273 18.1495 15.6808 18.0475 15.8673 17.9309C16.0596 17.8085 16.2082 17.692 16.3131 17.5812V15.0547H13.6642V13.4199H18.4987ZM22.8349 12.2659V19.9242H20.728V10.465H22.7388L22.8349 12.2659ZM25.7287 10.4038L25.7112 12.3621C25.583 12.3387 25.4431 12.3213 25.2915 12.3096C25.1458 12.2979 25.0001 12.2921 24.8544 12.2921C24.4931 12.2921 24.1754 12.3446 23.9015 12.4495C23.6276 12.5486 23.3974 12.6943 23.2109 12.8866C23.0302 13.0731 22.8903 13.3004 22.7912 13.5685C22.6921 13.8366 22.6339 14.1368 22.6164 14.469L22.1356 14.5039C22.1356 13.9095 22.1938 13.3587 22.3104 12.8516C22.427 12.3446 22.6018 11.8987 22.8349 11.514C23.0739 11.1294 23.3711 10.8292 23.7267 10.6136C24.088 10.3979 24.5047 10.2901 24.9768 10.2901C25.105 10.2901 25.242 10.3018 25.3877 10.3251C25.5392 10.3484 25.6529 10.3746 25.7287 10.4038ZM32.0669 18.0271V13.516C32.0669 13.178 32.0057 12.8866 31.8833 12.6418C31.7609 12.397 31.5744 12.2076 31.3238 12.0736C31.079 11.9395 30.7701 11.8725 30.3971 11.8725C30.0532 11.8725 29.756 11.9308 29.5054 12.0473C29.2547 12.1639 29.0595 12.3213 28.9196 12.5194C28.7797 12.7176 28.7098 12.942 28.7098 13.1926H26.6116C26.6116 12.8196 26.702 12.4582 26.8827 12.1085C27.0633 11.7588 27.3256 11.447 27.6695 11.1731C28.0133 10.8992 28.4242 10.6835 28.9021 10.5262C29.3801 10.3688 29.9162 10.2901 30.5107 10.2901C31.2218 10.2901 31.8512 10.4096 32.3991 10.6486C32.9528 10.8875 33.387 11.2489 33.7017 11.7326C34.0222 12.2105 34.1825 12.8108 34.1825 13.5335V17.7386C34.1825 18.1699 34.2117 18.5575 34.2699 18.9013C34.3341 19.2394 34.4244 19.5337 34.541 19.7843V19.9242H32.3816C32.2825 19.6969 32.2038 19.4084 32.1455 19.0587C32.0931 18.7032 32.0669 18.3593 32.0669 18.0271ZM32.3729 14.1717L32.3903 15.4743H30.8779C30.4874 15.4743 30.1435 15.5122 29.8463 15.588C29.5491 15.6579 29.3014 15.7628 29.1032 15.9027C28.905 16.0426 28.7564 16.2116 28.6573 16.4098C28.5583 16.6079 28.5087 16.8323 28.5087 17.0829C28.5087 17.3335 28.567 17.5638 28.6836 17.7736C28.8001 17.9776 28.9692 18.1378 29.1906 18.2544C29.4179 18.371 29.6919 18.4293 30.0124 18.4293C30.4437 18.4293 30.8196 18.3418 31.1402 18.167C31.4666 17.9863 31.723 17.7677 31.9095 17.5113C32.096 17.249 32.1951 17.0013 32.2067 16.7682L32.8886 17.7036C32.8187 17.9426 32.6992 18.199 32.5302 18.473C32.3612 18.7469 32.1397 19.0092 31.8658 19.2598C31.5977 19.5046 31.2742 19.7056 30.8954 19.863C30.5224 20.0204 30.0911 20.099 29.6015 20.099C28.9837 20.099 28.433 19.9766 27.9492 19.7319C27.4655 19.4812 27.0866 19.1461 26.8127 18.7265C26.5388 18.301 26.4018 17.8202 26.4018 17.284C26.4018 16.7828 26.4951 16.3398 26.6816 15.9552C26.8739 15.5647 27.1537 15.2383 27.5208 14.976C27.8939 14.7137 28.3485 14.5156 28.8847 14.3815C29.4208 14.2417 30.0328 14.1717 30.7205 14.1717H32.3729ZM38.5012 12.2834V23.561H36.3943V10.465H38.3351L38.5012 12.2834ZM44.6646 15.1072V15.2907C44.6646 15.9785 44.583 16.6167 44.4198 17.2053C44.2625 17.7881 44.0264 18.2981 43.7117 18.7352C43.4028 19.1665 43.021 19.5016 42.5664 19.7406C42.1118 19.9796 41.5873 20.099 40.9928 20.099C40.4042 20.099 39.8884 19.9912 39.4454 19.7756C39.0083 19.5541 38.6382 19.2423 38.3351 18.8401C38.0321 18.438 37.7873 17.9659 37.6008 17.4239C37.4201 16.876 37.2919 16.2757 37.2161 15.623V14.9148C37.2919 14.2213 37.4201 13.5918 37.6008 13.0265C37.7873 12.4611 38.0321 11.9745 38.3351 11.5665C38.6382 11.1585 39.0083 10.8438 39.4454 10.6223C39.8825 10.4009 40.3925 10.2901 40.9753 10.2901C41.5698 10.2901 42.0973 10.4067 42.5577 10.6398C43.0181 10.8671 43.4057 11.1935 43.7204 11.619C44.0352 12.0386 44.2712 12.5456 44.4286 13.1401C44.5859 13.7288 44.6646 14.3845 44.6646 15.1072ZM42.5577 15.2907V15.1072C42.5577 14.67 42.5169 14.265 42.4353 13.892C42.3537 13.5131 42.2255 13.1809 42.0506 12.8953C41.8758 12.6098 41.6514 12.3883 41.3775 12.2309C41.1094 12.0677 40.7859 11.9861 40.4071 11.9861C40.0341 11.9861 39.7135 12.0502 39.4454 12.1785C39.1773 12.3009 38.9529 12.4728 38.7723 12.6943C38.5916 12.9157 38.4517 13.1751 38.3526 13.4723C38.2535 13.7637 38.1836 14.0814 38.1428 14.4253V16.1213C38.2127 16.5409 38.3322 16.9256 38.5012 17.2753C38.6703 17.625 38.9092 17.9047 39.2181 18.1145C39.5328 18.3185 39.935 18.4205 40.4246 18.4205C40.8034 18.4205 41.1269 18.3389 41.395 18.1757C41.6631 18.0125 41.8816 17.7881 42.0506 17.5026C42.2255 17.2111 42.3537 16.876 42.4353 16.4972C42.5169 16.1184 42.5577 15.7162 42.5577 15.2907ZM48.5375 6.49593V19.9242H46.4393V6.49593H48.5375ZM48.1703 14.8449L47.4884 14.8361C47.4942 14.1834 47.5846 13.5802 47.7594 13.0265C47.9401 12.4728 48.1907 11.992 48.5112 11.584C48.8376 11.1702 49.2281 10.8525 49.6827 10.6311C50.1373 10.4038 50.6415 10.2901 51.1951 10.2901C51.6614 10.2901 52.081 10.3542 52.454 10.4824C52.8329 10.6107 53.1593 10.8176 53.4332 11.1032C53.7071 11.3829 53.914 11.7501 54.0539 12.2047C54.1996 12.6535 54.2725 13.2013 54.2725 13.8483V19.9242H52.1568V13.8308C52.1568 13.3762 52.0898 13.0148 51.9557 12.7467C51.8275 12.4786 51.6381 12.2863 51.3875 12.1697C51.1369 12.0473 50.8309 11.9861 50.4695 11.9861C50.0907 11.9861 49.7556 12.0619 49.4642 12.2134C49.1786 12.365 48.9396 12.5719 48.7473 12.8341C48.555 13.0964 48.4092 13.3995 48.3102 13.7433C48.2169 14.0872 48.1703 14.4544 48.1703 14.8449ZM58.9584 7.19532V19.9242H56.764V7.19532H58.9584ZM65.8124 10.465V12.0036H60.4795V10.465H65.8124ZM62.0182 8.14824H64.1251V17.3102C64.1251 17.6016 64.1659 17.826 64.2475 17.9834C64.3349 18.1349 64.4544 18.2369 64.6059 18.2894C64.7575 18.3418 64.9352 18.3681 65.1392 18.3681C65.2849 18.3681 65.4248 18.3593 65.5588 18.3418C65.6929 18.3243 65.8007 18.3069 65.8823 18.2894L65.891 19.898C65.7162 19.9504 65.5122 19.997 65.2791 20.0378C65.0518 20.0786 64.7895 20.099 64.4923 20.099C64.0085 20.099 63.5802 20.0145 63.2071 19.8455C62.8341 19.6707 62.5427 19.388 62.3329 18.9975C62.1231 18.607 62.0182 18.0883 62.0182 17.4414V8.14824ZM74.7908 7.19532H76.9764V15.7016C76.9764 16.6691 76.7665 17.4792 76.3469 18.132C75.9273 18.7848 75.3561 19.2773 74.6334 19.6095C73.9165 19.9359 73.1151 20.099 72.2293 20.099C71.3142 20.099 70.4983 19.9359 69.7814 19.6095C69.0645 19.2773 68.4992 18.7848 68.0854 18.132C67.6774 17.4792 67.4734 16.6691 67.4734 15.7016V7.19532H69.659V15.7016C69.659 16.3136 69.7639 16.8177 69.9737 17.2141C70.1835 17.6046 70.4808 17.8931 70.8654 18.0796C71.2501 18.2661 71.7047 18.3593 72.2293 18.3593C72.7538 18.3593 73.2055 18.2661 73.5843 18.0796C73.969 17.8931 74.2662 17.6046 74.476 17.2141C74.6859 16.8177 74.7908 16.3136 74.7908 15.7016V7.19532ZM81.2689 12.2834V23.561H79.1619V10.465H81.1028L81.2689 12.2834ZM87.4322 15.1072V15.2907C87.4322 15.9785 87.3506 16.6167 87.1874 17.2053C87.0301 17.7881 86.794 18.2981 86.4793 18.7352C86.1704 19.1665 85.7887 19.5016 85.3341 19.7406C84.8794 19.9796 84.3549 20.099 83.7604 20.099C83.1718 20.099 82.656 19.9912 82.213 19.7756C81.7759 19.5541 81.4058 19.2423 81.1028 18.8401C80.7997 18.438 80.5549 17.9659 80.3684 17.4239C80.1877 16.876 80.0595 16.2757 79.9837 15.623V14.9148C80.0595 14.2213 80.1877 13.5918 80.3684 13.0265C80.5549 12.4611 80.7997 11.9745 81.1028 11.5665C81.4058 11.1585 81.7759 10.8438 82.213 10.6223C82.6501 10.4009 83.1601 10.2901 83.7429 10.2901C84.3374 10.2901 84.8649 10.4067 85.3253 10.6398C85.7857 10.8671 86.1733 11.1935 86.488 11.619C86.8028 12.0386 87.0388 12.5456 87.1962 13.1401C87.3535 13.7288 87.4322 14.3845 87.4322 15.1072ZM85.3253 15.2907V15.1072C85.3253 14.67 85.2845 14.265 85.2029 13.892C85.1213 13.5131 84.9931 13.1809 84.8183 12.8953C84.6434 12.6098 84.419 12.3883 84.1451 12.2309C83.877 12.0677 83.5535 11.9861 83.1747 11.9861C82.8017 11.9861 82.4811 12.0502 82.213 12.1785C81.9449 12.3009 81.7205 12.4728 81.5399 12.6943C81.3592 12.9157 81.2193 13.1751 81.1202 13.4723C81.0212 13.7637 80.9512 14.0814 80.9104 14.4253V16.1213C80.9804 16.5409 81.0998 16.9256 81.2689 17.2753C81.4379 17.625 81.6768 17.9047 81.9857 18.1145C82.3005 18.3185 82.7026 18.4205 83.1922 18.4205C83.571 18.4205 83.8945 18.3389 84.1626 18.1757C84.4307 18.0125 84.6492 17.7881 84.8183 17.5026C84.9931 17.2111 85.1213 16.876 85.2029 16.4972C85.2845 16.1184 85.3253 15.7162 85.3253 15.2907Z" fill="white"/>
<path d="M14.9299 48.9399C18.5198 48.9399 21.4299 46.0298 21.4299 42.4399C21.4299 38.8501 18.5198 35.9399 14.9299 35.9399C11.3401 35.9399 8.42993 38.8501 8.42993 42.4399C8.42993 46.0298 11.3401 48.9399 14.9299 48.9399Z" fill="white"/>
<path d="M37.8999 73.01C41.4898 73.01 44.3999 70.0999 44.3999 66.51C44.3999 62.9202 41.4898 60.01 37.8999 60.01C34.3101 60.01 31.3999 62.9202 31.3999 66.51C31.3999 70.0999 34.3101 73.01 37.8999 73.01Z" fill="white"/>
<path d="M62.1599 40.29C65.7498 40.29 68.6599 37.3799 68.6599 33.79C68.6599 30.2002 65.7498 27.29 62.1599 27.29C58.5701 27.29 55.6599 30.2002 55.6599 33.79C55.6599 37.3799 58.5701 40.29 62.1599 40.29Z" fill="white"/>
<path d="M84.6499 57.4299C88.2398 57.4299 91.1499 54.5198 91.1499 50.9299C91.1499 47.3401 88.2398 44.4299 84.6499 44.4299C81.0601 44.4299 78.1499 47.3401 78.1499 50.9299C78.1499 54.5198 81.0601 57.4299 84.6499 57.4299Z" fill="white"/>
<defs>
<radialGradient id="paint0_radial_7007_183" cx="0" cy="0" r="1" gradientUnits="userSpaceOnUse" gradientTransform="translate(49.4973 48.5091) scale(78.1423 71.7699)">
<stop stop-color="#2158A5"/>
<stop offset="0.2193" stop-color="#2158A2"/>
<stop offset="0.4216" stop-color="#22559A"/>
<stop offset="0.6172" stop-color="#23508C"/>
<stop offset="0.8086" stop-color="#244979"/>
<stop offset="0.9955" stop-color="#234162"/>
<stop offset="1" stop-color="#234161"/>
</radialGradient>
<radialGradient id="paint1_radial_7007_183" cx="0" cy="0" r="1" gradientUnits="userSpaceOnUse" gradientTransform="translate(49.4973 48.5091) scale(78.1423 71.7699)">
<stop stop-color="#2158A5"/>
<stop offset="0.2193" stop-color="#2158A2"/>
<stop offset="0.4216" stop-color="#22559A"/>
<stop offset="0.6172" stop-color="#23508C"/>
<stop offset="0.8086" stop-color="#244979"/>
<stop offset="0.9955" stop-color="#234162"/>
<stop offset="1" stop-color="#234161"/>
</radialGradient>
</defs>
</svg>
