<svg width="100" height="100" viewBox="0 0 100 100" fill="none" xmlns="http://www.w3.org/2000/svg">
<rect x="1.5" y="1.5" width="97" height="97" rx="4.5" stroke="white" stroke-width="3"/>
<path d="M47 88V60.71L38.78 72.2L30 62.6199V88H47Z" fill="#D3302F"/>
<path d="M23 88V54.98L15.32 46.61L6 58.68V88H23Z" fill="#D3302F"/>
<path d="M70 88.0001V43.7801L63 38.3201L53 52.3101V88.0001H70Z" fill="#D3302F"/>
<path d="M93 88V44.95L85.54 55.91L76 48.47V88H93Z" fill="#D3302F"/>
<path d="M62.11 28.36L37.81 62.26L14.93 37.3L0 56.63V66.45L6 58.68L15.32 46.61L23 54.98L30 62.62L38.78 72.2L47 60.71L53 52.31L63 38.32L70 43.78L76 48.47L85.54 55.91L93 44.95L100 34.67V24L84.5 46.77L62.11 28.36Z" fill="white"/>
<path d="M14.9299 48.9399C18.5198 48.9399 21.4299 46.0298 21.4299 42.4399C21.4299 38.8501 18.5198 35.9399 14.9299 35.9399C11.3401 35.9399 8.42993 38.8501 8.42993 42.4399C8.42993 46.0298 11.3401 48.9399 14.9299 48.9399Z" fill="white"/>
<path d="M37.8999 73.01C41.4898 73.01 44.3999 70.0999 44.3999 66.51C44.3999 62.9202 41.4898 60.01 37.8999 60.01C34.3101 60.01 31.3999 62.9202 31.3999 66.51C31.3999 70.0999 34.3101 73.01 37.8999 73.01Z" fill="white"/>
<path d="M62.1599 40.29C65.7498 40.29 68.6599 37.3799 68.6599 33.79C68.6599 30.2002 65.7498 27.29 62.1599 27.29C58.5701 27.29 55.6599 30.2002 55.6599 33.79C55.6599 37.3799 58.5701 40.29 62.1599 40.29Z" fill="white"/>
<path d="M84.6499 57.4299C88.2398 57.4299 91.1499 54.5198 91.1499 50.9299C91.1499 47.3401 88.2398 44.4299 84.6499 44.4299C81.0601 44.4299 78.1499 47.3401 78.1499 50.9299C78.1499 54.5198 81.0601 57.4299 84.6499 57.4299Z" fill="white"/>
</svg>
