<?xml version="1.0" standalone="no"?>
<!DOCTYPE svg PUBLIC "-//W3C//DTD SVG 20010904//EN"
 "http://www.w3.org/TR/2001/REC-SVG-20010904/DTD/svg10.dtd">
<svg version="1.0" xmlns="http://www.w3.org/2000/svg"
 width="808.000000pt" height="808.000000pt" viewBox="0 0 808.000000 808.000000"
 preserveAspectRatio="xMidYMid meet">
<metadata>
Created by potrace 1.14, written by Peter Selinger 2001-2017
</metadata>
<g transform="translate(0.000000,808.000000) scale(0.100000,-0.100000)"
fill="#000000" stroke="none">
<path d="M335 8026 c-154 -38 -279 -163 -321 -320 -12 -43 -14 -637 -14 -3666
0 -3878 -3 -3657 49 -3759 60 -116 173 -203 299 -230 39 -8 1025 -11 3655 -11
3923 0 3651 -4 3765 54 128 65 238 244 228 374 -1 18 1 35 6 38 5 3 5 11 1 17
-8 14 -7 92 2 107 3 5 3 10 -2 10 -9 0 -9 97 0 106 3 4 3 14 -1 23 -4 9 -7 27
-5 41 3 38 3 73 1 213 -2 70 1 127 5 127 5 0 5 5 1 11 -10 16 -11 69 -2 97 4
12 4 22 0 22 -9 0 -8 97 1 106 3 4 3 14 -1 23 -4 9 -7 27 -5 41 3 38 3 73 1
213 -2 70 1 127 5 127 5 0 5 5 1 11 -10 16 -11 69 -2 97 4 12 4 22 0 22 -9 0
-8 97 1 106 3 4 3 14 -1 23 -4 9 -7 27 -5 41 3 38 3 73 1 213 -2 70 1 127 5
127 5 0 5 5 1 11 -10 16 -11 69 -2 97 4 12 4 22 0 22 -9 0 -8 97 1 106 3 4 3
14 -1 23 -4 9 -7 27 -5 41 3 38 3 77 0 160 -1 41 1 83 6 93 4 9 4 17 0 17 -10
0 -8 93 1 109 4 6 4 11 -1 11 -10 0 -9 93 1 109 4 6 4 11 -1 11 -4 0 -7 26 -6
57 3 74 3 121 0 158 -1 17 1 38 5 47 5 9 4 19 0 22 -5 3 -7 20 -5 38 4 43 4
93 0 141 -1 21 1 41 5 44 5 2 5 9 2 15 -9 15 -9 252 0 266 4 7 4 12 -1 12 -10
0 -9 93 1 109 4 6 4 11 -1 11 -6 0 -9 132 -2 150 1 3 0 10 -1 15 -5 24 -3 93
4 103 4 7 3 12 -1 12 -10 0 -8 63 2 79 3 6 3 11 -2 11 -9 0 -8 85 2 100 3 5 3
10 -2 10 -9 0 -9 91 0 107 4 6 4 13 0 16 -8 9 -8 211 0 225 4 6 4 13 -1 15 -4
3 -6 23 -5 44 4 56 4 84 0 121 -2 17 0 32 4 32 4 0 4 13 -1 29 -4 15 -4 34 0
42 5 7 5 20 0 29 -5 9 -5 22 0 30 4 7 4 24 0 36 -6 14 -5 26 0 29 5 3 5 18 0
35 -5 17 -5 32 0 35 5 3 5 16 0 30 -7 18 -6 25 2 25 9 0 9 3 1 11 -8 8 -8 20
-3 35 6 14 6 26 0 29 -6 3 -6 15 0 30 6 15 6 27 0 30 -6 3 -6 15 0 30 6 15 6
27 0 30 -5 3 -6 15 -1 28 5 12 5 30 2 41 -4 10 -6 32 -4 50 5 55 4 126 -2 136
-3 6 -2 10 3 10 6 0 7 14 2 35 -4 19 -4 37 0 40 5 3 5 18 0 34 -4 16 -6 32 -3
35 8 8 7 95 0 103 -4 3 -2 13 3 22 5 10 5 23 0 31 -5 8 -5 21 0 30 5 9 5 22 0
30 -5 8 -5 21 0 30 5 9 5 22 0 30 -4 7 -4 24 0 36 6 14 5 26 0 29 -5 3 -5 18
0 35 5 17 5 30 0 30 -5 0 -5 13 0 30 5 17 5 30 0 30 -5 0 -5 13 0 30 5 17 5
30 0 30 -5 0 -5 13 0 30 5 17 6 30 2 30 -4 0 -6 26 -5 57 5 113 4 153 -2 163
-3 6 -2 10 3 10 6 0 7 14 2 35 -4 19 -4 37 1 40 4 3 4 16 -1 29 -5 13 -6 26
-4 29 9 9 10 70 3 100 -4 15 -4 27 1 27 5 0 5 13 0 30 -5 17 -5 30 0 30 5 0 5
13 0 30 -5 17 -5 30 0 30 5 0 5 13 0 30 -5 17 -5 30 0 30 5 0 5 13 0 30 -5 17
-5 30 0 30 5 0 5 13 0 30 -5 17 -5 30 0 30 5 0 5 13 0 30 -5 18 -5 32 1 36 5
3 7 9 4 14 -3 5 -8 33 -10 62 -6 59 -19 105 -47 162 -56 111 -170 198 -296
225 -80 17 -7248 14 -7317 -3z"/>
</g>
</svg>
